<svg viewBox="0 0 72 72" xmlns="http://www.w3.org/2000/svg"><g clip-rule="evenodd" fill-rule="evenodd"><path d="m20.2 11.1c-4.3 1.3-3.9 3.6-4.2 7.2-.3 3.3 1.7 22.2 2 24.9 2.2-2.1 6.4-3.6 11-4.3 4-.6 6.1-.6 6.9-.6v-29.5c-5 .5-10.9.9-15.7 2.3z" fill="#cf7610"/><path d="m36 56.6c-.9 3.1-3 9.8-5.2 11.8-2.9 2.6-12 2.2-16.8-1.6s1.3-19.7 3-22.3c1.7-2.7 6.5-4.7 12-5.5 4-.6 6.1-.6 6.9-.6v18.2z" fill="#e89507"/><path d="m36 49c-1.4.1-5.9.4-6.8 1.1s5.1 3.8 6.8 4.6z" fill="#1a1a18"/><path d="m24.9 10.1c1.9 3.3 4.1 7.8 4.4 12.1.4 5.3-5.3 14.1-9.4 19.7-.7.4-1.3.9-1.8 1.4-.3-2.7-2.3-21.6-2-24.9.3-3.6-.1-5.9 4.2-7.2 1.4-.5 3-.8 4.6-1.1z" fill="#a55600"/><path d="m29.3 23.2c-.5-1.1-1.3-2.5-2.9-3-2.7-.9-4.5-.5-4.5-.5s-.8 2.9 2.5 4.9c1.9 1.2 3.5 1.3 4.5 1.2.2-.9.3-1.8.4-2.6z" fill="#f4e1ce"/><path d="m25.3 19.9c-.7.4-1.3 1.2-1.5 2.3-.2.9 0 1.7.3 2.3l.1.1c.6.4 1.1.6 1.6.8.8-.2 1.6-1.2 1.8-2.5.1-.8.1-1.5-.2-2.1-.4-.3-.8-.5-1.2-.7-.2 0-.5-.1-.9-.2z" fill="#2c0f00"/><ellipse cx="25.8" cy="22.6" fill="#ececec" rx="1" ry=".7" transform="matrix(.17919716 -.98381318 .98381318 .17919716 -1.042859 43.942031)"/><path d="m24.9 10.1s-3.7-4.3-7-6.7c-3.2-2.4-3.6-1.8-7.5 2.1s-7.4 8-7.4 8 1.4 8.5 3.1 13.1 3.8.1 5.7-4 4.3-15.6 5.6-17.1 5.6 3.6 5.6 3.6l.9 1.1c.3 0 .7-.1 1-.1z" fill="#cf7610"/><path d="m16.3 8.3c.6.7 1.6 2 2 3.7.5-.3 1.1-.6 1.9-.8 1.2-.3 2.4-.6 3.7-.9l-.9-1.2s-4.3-5.2-5.6-3.6c-.3.4-.7 1.4-1.1 2.8z" fill="#4d2400"/><path d="m30.9 68.2c.6.4 1.5 1 2.7 1.2 1.3.3 2 .4 2.4.4v-13.2c-.9 3-2.9 9.5-5.1 11.6z" fill="#210f00"/><path d="m32.6 65.7c.5.4 1.3.7 2.7.8h.7v3.3c-.4 0-1.1-.1-2.4-.4-1.2-.3-2.1-.8-2.7-1.2.6-.5 1.2-1.4 1.7-2.5z" fill="#5d1900"/><path d="m51.8 11.1c4.3 1.3 3.9 3.6 4.2 7.2.3 3.3-1.7 22.2-2 24.9-2.2-2.1-6.4-3.6-11-4.3-4-.6-6.1-.6-6.9-.6v-29.5c5 .5 10.9.9 15.7 2.3z" fill="#bc6600"/><path d="m36 56.6c.9 3.1 3 9.8 5.2 11.8 2.9 2.6 12 2.2 16.8-1.6s-1.3-19.7-3-22.3c-1.7-2.7-6.5-4.7-12-5.5-4-.6-6.1-.6-6.9-.6v18.2z" fill="#c67a00"/><path d="m36 49c1.4.1 5.9.4 6.8 1.1s-5.1 3.8-6.8 4.6z" fill="#040000"/><path d="m47.1 10.1c-1.9 3.3-4.1 7.8-4.4 12.1-.4 5.3 5.3 14.1 9.4 19.7.7.4 1.3.9 1.8 1.4.3-2.7 2.3-21.6 2-24.9-.3-3.6.1-5.9-4.2-7.2-1.4-.5-3-.8-4.6-1.1z" fill="#8e4900"/><path d="m42.7 23.2c.5-1.1 1.3-2.5 2.9-3 2.7-.9 4.5-.5 4.5-.5s.8 2.9-2.5 4.9c-1.9 1.2-3.5 1.3-4.5 1.2-.2-.9-.3-1.8-.4-2.6z" fill="#f4e1ce"/><path d="m46.7 19.9c.7.4 1.3 1.2 1.5 2.3.2.9 0 1.7-.3 2.3l-.1.1c-.6.4-1.1.6-1.6.8-.8-.2-1.6-1.2-1.8-2.5-.1-.8-.1-1.5.2-2.1.4-.3.8-.5 1.2-.7.2 0 .5-.1.9-.2z" fill="#2c0f00"/><ellipse cx="46.2" cy="22.6" fill="#ececec" rx=".7" ry="1" transform="matrix(.98380067 -.17926584 .17926584 .98380067 -3.303519 8.646426)"/><path d="m47.1 10.1s3.7-4.3 7-6.7c3.2-2.4 3.6-1.8 7.5 2.1s7.4 8 7.4 8-1.3 8.5-3.1 13.1c-1.7 4.6-3.8.1-5.7-4s-4.3-15.6-5.6-17.1-5.6 3.6-5.6 3.6l-.9 1.1c-.3 0-.7-.1-1-.1z" fill="#b06000"/><path d="m55.7 8.3c-.6.7-1.6 2-2 3.7-.5-.3-1.1-.6-1.9-.8-1.2-.3-2.4-.6-3.7-.9l.9-1.2s4.3-5.2 5.6-3.6c.3.4.7 1.4 1.1 2.8z" fill="#341100"/><path d="m41.1 68.2c-.6.4-1.5 1-2.7 1.2-1.3.3-2 .4-2.4.4v-13.2c.9 3 2.9 9.5 5.1 11.6z" fill="#180500"/><path d="m39.4 65.7c-.5.4-1.3.7-2.7.8h-.7v3.3c.4 0 1.1-.1 2.4-.4 1.2-.3 2.1-.8 2.7-1.2-.6-.5-1.2-1.4-1.7-2.5z" fill="#410500"/></g></svg>